<svg width="200" height="200" viewBox="0 0 200 200" fill="none" xmlns="http://www.w3.org/2000/svg">
<rect width="200" height="200" rx="100" fill="#4B9DA9"/>
<path d="M100 0L101.57 75.0493L112.533 0.788528L104.685 75.4428L124.869 3.14169L107.725 76.2236L136.812 7.02235L110.644 77.3793L148.175 12.3693L113.396 78.8918L158.779 19.0983L115.936 80.7372L168.455 27.1031L118.224 82.8863L177.051 36.2576L120.225 85.3054L184.433 46.4173L121.908 87.9562L190.483 57.4221L123.244 90.7969L195.106 69.0983L124.215 93.7828L198.229 81.2619L124.803 96.8667L199.803 93.7209L125 100L199.803 106.279L124.803 103.133L198.229 118.738L124.215 106.217L195.106 130.902L123.244 109.203L190.483 142.578L121.908 112.044L184.433 153.583L120.225 114.695L177.051 163.742L118.224 117.114L168.455 172.897L115.936 119.263L158.779 180.902L113.396 121.108L148.175 187.631L110.644 122.621L136.812 192.978L107.725 123.776L124.869 196.858L104.685 124.557L112.533 199.211L101.57 124.951L100 200L98.4302 124.951L87.4667 199.211L95.3155 124.557L75.131 196.858L92.2746 123.776L63.1875 192.978L89.3555 122.621L51.8246 187.631L86.6043 121.108L41.2215 180.902L84.0644 119.263L31.5453 172.897L81.7758 117.114L22.9487 163.742L79.7746 114.695L15.5672 153.583L78.0923 112.044L9.5173 142.578L76.7556 109.203L4.89435 130.902L75.7854 106.217L1.77128 118.738L75.1971 103.133L0.197327 106.279L75 100L0.197327 93.7209L75.1971 96.8667L1.77128 81.2619L75.7854 93.7828L4.89435 69.0983L76.7556 90.7969L9.5173 57.4221L78.0923 87.9562L15.5672 46.4173L79.7746 85.3054L22.9487 36.2576L81.7758 82.8863L31.5453 27.1031L84.0644 80.7372L41.2215 19.0983L86.6043 78.8918L51.8246 12.3693L89.3555 77.3793L63.1875 7.02235L92.2746 76.2236L75.131 3.14169L95.3155 75.4428L87.4667 0.788528L98.4302 75.0493L100 0Z" fill="#E37434"/>
</svg>
